<svg xmlns="http://www.w3.org/2000/svg" viewBox="0 0 960 360">
  <rect width="960" height="360" fill="#0C1B2E"/>

  <!-- Scattered pixel squares (dissolution effect) -->
  <g>
    <rect x="44" y="29" width="7" height="7" fill="#00B4D8" opacity="0.73"/>
    <rect x="51" y="36" width="8" height="8" fill="#00B4D8" opacity="0.71"/>
    <rect x="62" y="37" width="7" height="7" fill="#00B4D8" opacity="0.84"/>
    <rect x="74" y="46" width="8" height="8" fill="#00B4D8" opacity="0.86"/>
    <rect x="83" y="53" width="8" height="8" fill="#00B4D8" opacity="0.76"/>
    <rect x="94" y="58" width="8" height="8" fill="#00B4D8" opacity="0.72"/>
    <rect x="19" y="28" width="8" height="8" fill="#00B4D8" opacity="0.71"/>
    <rect x="0" y="18" width="5" height="5" fill="#00B4D8" opacity="0.55"/>
    <rect x="16" y="16" width="7" height="7" fill="#00B4D8" opacity="0.58"/>
    <rect x="19" y="22" width="7" height="7" fill="#00B4D8" opacity="0.69"/>
    <rect x="25" y="31" width="7" height="7" fill="#00B4D8" opacity="0.7"/>
    <rect x="25" y="8" width="6" height="6" fill="#00B4D8" opacity="0.69"/>
    <rect x="35" y="28" width="7" height="7" fill="#00B4D8" opacity="0.85"/>
    <rect x="14" y="8" width="7" height="7" fill="#00B4D8" opacity="0.54"/>
    <rect x="18" y="8" width="6" height="6" fill="#00B4D8" opacity="0.58"/>
    <rect x="23" y="26" width="8" height="8" fill="#00B4D8" opacity="0.76"/>
    <rect x="15" y="21" width="6" height="6" fill="#00B4D8" opacity="0.64"/>
    <rect x="32" y="27" width="7" height="7" fill="#00B4D8" opacity="0.84"/>
    <rect x="33" y="18" width="7" height="7" fill="#00B4D8" opacity="0.74"/>
    <rect x="14" y="4" width="7" height="7" fill="#00B4D8" opacity="0.58"/>
    <rect x="12" y="14" width="7" height="7" fill="#00B4D8" opacity="0.64"/>
    <rect x="21" y="19" width="7" height="7" fill="#00B4D8" opacity="0.75"/>
    <rect x="1" y="11" width="6" height="6" fill="#00B4D8" opacity="0.56"/>
    <rect x="14" y="14" width="6" height="6" fill="#00B4D8" opacity="0.55"/>
    <rect x="14" y="17" width="6" height="6" fill="#00B4D8" opacity="0.69"/>
    <rect x="9" y="17" width="6" height="6" fill="#00B4D8" opacity="0.52"/>
    <rect x="20" y="5" width="6" height="6" fill="#00B4D8" opacity="0.56"/>
    <rect x="18" y="10" width="6" height="6" fill="#00B4D8" opacity="0.59"/>
    <rect x="44" y="329" width="7" height="7" fill="#00B4D8" opacity="0.84"/>
    <rect x="53" y="327" width="8" height="8" fill="#00B4D8" opacity="0.72"/>
    <rect x="63" y="318" width="7" height="7" fill="#00B4D8" opacity="0.82"/>
    <rect x="72" y="315" width="7" height="7" fill="#00B4D8" opacity="0.88"/>
    <rect x="85" y="306" width="8" height="8" fill="#00B4D8" opacity="0.74"/>
    <rect x="92" y="304" width="8" height="8" fill="#00B4D8" opacity="0.75"/>
    <rect x="17" y="347" width="7" height="7" fill="#00B4D8" opacity="0.6"/>
    <rect x="18" y="342" width="6" height="6" fill="#00B4D8" opacity="0.68"/>
    <rect x="30" y="333" width="7" height="7" fill="#00B4D8" opacity="0.73"/>
    <rect x="19" y="349" width="6" height="6" fill="#00B4D8" opacity="0.69"/>
    <rect x="33" y="333" width="7" height="7" fill="#00B4D8" opacity="0.72"/>
    <rect x="23" y="359" width="6" height="6" fill="#00B4D8" opacity="0.68"/>
    <rect x="1" y="353" width="6" height="6" fill="#00B4D8" opacity="0.46"/>
    <rect x="6" y="352" width="6" height="6" fill="#00B4D8" opacity="0.47"/>
    <rect x="30" y="351" width="7" height="7" fill="#00B4D8" opacity="0.71"/>
    <rect x="13" y="347" width="7" height="7" fill="#00B4D8" opacity="0.6"/>
    <rect x="13" y="345" width="6" height="6" fill="#00B4D8" opacity="0.64"/>
    <rect x="28" y="341" width="7" height="7" fill="#00B4D8" opacity="0.8"/>
    <rect x="12" y="349" width="6" height="6" fill="#00B4D8" opacity="0.57"/>
    <rect x="11" y="349" width="7" height="7" fill="#00B4D8" opacity="0.65"/>
    <rect x="29" y="339" width="8" height="8" fill="#00B4D8" opacity="0.68"/>
    <rect x="10" y="354" width="7" height="7" fill="#00B4D8" opacity="0.52"/>
    <rect x="26" y="336" width="8" height="8" fill="#00B4D8" opacity="0.68"/>
    <rect x="19" y="338" width="8" height="8" fill="#00B4D8" opacity="0.62"/>
    <rect x="33" y="337" width="7" height="7" fill="#00B4D8" opacity="0.74"/>
    <rect x="7" y="355" width="5" height="5" fill="#00B4D8" opacity="0.55"/>
    <rect x="1" y="359" width="5" height="5" fill="#00B4D8" opacity="0.4"/>
    <rect x="18" y="344" width="7" height="7" fill="#00B4D8" opacity="0.57"/>
    <rect x="75" y="45" width="7" height="7" fill="#14B9C6" opacity="0.85"/>
    <rect x="85" y="55" width="7" height="7" fill="#14B9C6" opacity="0.89"/>
    <rect x="96" y="61" width="8" height="8" fill="#14B9C6" opacity="0.82"/>
    <rect x="105" y="64" width="7" height="7" fill="#14B9C6" opacity="0.88"/>
    <rect x="115" y="71" width="8" height="8" fill="#14B9C6" opacity="0.89"/>
    <rect x="41" y="26" width="5" height="5" fill="#14B9C6" opacity="0.58"/>
    <rect x="36" y="31" width="6" height="6" fill="#14B9C6" opacity="0.4"/>
    <rect x="36" y="37" width="5" height="5" fill="#14B9C6" opacity="0.47"/>
    <rect x="44" y="18" width="5" height="5" fill="#14B9C6" opacity="0.47"/>
    <rect x="66" y="49" width="8" height="8" fill="#14B9C6" opacity="0.78"/>
    <rect x="37" y="28" width="5" height="5" fill="#14B9C6" opacity="0.43"/>
    <rect x="41" y="36" width="6" height="6" fill="#14B9C6" opacity="0.62"/>
    <rect x="60" y="38" width="8" height="8" fill="#14B9C6" opacity="0.73"/>
    <rect x="35" y="29" width="6" height="6" fill="#14B9C6" opacity="0.41"/>
    <rect x="31" y="24" width="6" height="6" fill="#14B9C6" opacity="0.34"/>
    <rect x="42" y="39" width="7" height="7" fill="#14B9C6" opacity="0.59"/>
    <rect x="53" y="27" width="7" height="7" fill="#14B9C6" opacity="0.67"/>
    <rect x="65" y="37" width="7" height="7" fill="#14B9C6" opacity="0.72"/>
    <rect x="67" y="43" width="8" height="8" fill="#14B9C6" opacity="0.81"/>
    <rect x="47" y="23" width="7" height="7" fill="#14B9C6" opacity="0.57"/>
    <rect x="61" y="31" width="8" height="8" fill="#14B9C6" opacity="0.69"/>
    <rect x="60" y="45" width="7" height="7" fill="#14B9C6" opacity="0.76"/>
    <rect x="55" y="45" width="7" height="7" fill="#14B9C6" opacity="0.66"/>
    <rect x="62" y="40" width="8" height="8" fill="#14B9C6" opacity="0.73"/>
    <rect x="47" y="44" width="6" height="6" fill="#14B9C6" opacity="0.64"/>
    <rect x="42" y="20" width="5" height="5" fill="#14B9C6" opacity="0.45"/>
    <rect x="41" y="34" width="7" height="7" fill="#14B9C6" opacity="0.48"/>
    <rect x="31" y="25" width="5" height="5" fill="#14B9C6" opacity="0.36"/>
    <rect x="70" y="41" width="8" height="8" fill="#14B9C6" opacity="0.82"/>
    <rect x="32" y="41" width="5" height="5" fill="#14B9C6" opacity="0.53"/>
    <rect x="56" y="35" width="7" height="7" fill="#14B9C6" opacity="0.62"/>
    <rect x="73" y="310" width="7" height="7" fill="#14B9C6" opacity="0.86"/>
    <rect x="83" y="308" width="8" height="8" fill="#14B9C6" opacity="0.71"/>
    <rect x="94" y="302" width="8" height="8" fill="#14B9C6" opacity="0.83"/>
    <rect x="110" y="295" width="8" height="8" fill="#14B9C6" opacity="0.82"/>
    <rect x="119" y="287" width="8" height="8" fill="#14B9C6" opacity="0.88"/>
    <rect x="42" y="334" width="5" height="5" fill="#14B9C6" opacity="0.56"/>
    <rect x="58" y="319" width="8" height="8" fill="#14B9C6" opacity="0.73"/>
    <rect x="56" y="315" width="8" height="8" fill="#14B9C6" opacity="0.68"/>
    <rect x="32" y="331" width="5" height="5" fill="#14B9C6" opacity="0.39"/>
    <rect x="62" y="322" width="7" height="7" fill="#14B9C6" opacity="0.71"/>
    <rect x="61" y="329" width="8" height="8" fill="#14B9C6" opacity="0.67"/>
    <rect x="67" y="329" width="7" height="7" fill="#14B9C6" opacity="0.79"/>
    <rect x="35" y="324" width="6" height="6" fill="#14B9C6" opacity="0.5"/>
    <rect x="32" y="336" width="6" height="6" fill="#14B9C6" opacity="0.43"/>
    <rect x="37" y="324" width="5" height="5" fill="#14B9C6" opacity="0.51"/>
    <rect x="61" y="325" width="8" height="8" fill="#14B9C6" opacity="0.74"/>
    <rect x="35" y="331" width="5" height="5" fill="#14B9C6" opacity="0.54"/>
    <rect x="44" y="319" width="6" height="6" fill="#14B9C6" opacity="0.53"/>
    <rect x="54" y="327" width="7" height="7" fill="#14B9C6" opacity="0.59"/>
    <rect x="60" y="322" width="8" height="8" fill="#14B9C6" opacity="0.75"/>
    <rect x="51" y="316" width="7" height="7" fill="#14B9C6" opacity="0.62"/>
    <rect x="62" y="308" width="8" height="8" fill="#14B9C6" opacity="0.74"/>
    <rect x="66" y="314" width="7" height="7" fill="#14B9C6" opacity="0.83"/>
    <rect x="31" y="334" width="5" height="5" fill="#14B9C6" opacity="0.38"/>
    <rect x="50" y="323" width="6" height="6" fill="#14B9C6" opacity="0.63"/>
    <rect x="62" y="321" width="7" height="7" fill="#14B9C6" opacity="0.75"/>
    <rect x="35" y="344" width="5" height="5" fill="#14B9C6" opacity="0.46"/>
    <rect x="64" y="320" width="8" height="8" fill="#14B9C6" opacity="0.77"/>
    <rect x="29" y="326" width="6" height="6" fill="#14B9C6" opacity="0.42"/>
    <rect x="36" y="321" width="5" height="5" fill="#14B9C6" opacity="0.46"/>
    <rect x="36" y="326" width="5" height="5" fill="#14B9C6" opacity="0.54"/>
    <rect x="106" y="67" width="8" height="8" fill="#28BEB4" opacity="0.71"/>
    <rect x="116" y="73" width="8" height="8" fill="#28BEB4" opacity="0.72"/>
    <rect x="126" y="82" width="7" height="7" fill="#28BEB4" opacity="0.79"/>
    <rect x="138" y="85" width="8" height="8" fill="#28BEB4" opacity="0.79"/>
    <rect x="68" y="53" width="5" height="5" fill="#28BEB4" opacity="0.53"/>
    <rect x="95" y="65" width="8" height="8" fill="#28BEB4" opacity="0.74"/>
    <rect x="81" y="60" width="6" height="6" fill="#28BEB4" opacity="0.62"/>
    <rect x="86" y="62" width="8" height="8" fill="#28BEB4" opacity="0.64"/>
    <rect x="68" y="55" width="6" height="6" fill="#28BEB4" opacity="0.49"/>
    <rect x="86" y="45" width="6" height="6" fill="#28BEB4" opacity="0.54"/>
    <rect x="69" y="60" width="6" height="6" fill="#28BEB4" opacity="0.54"/>
    <rect x="83" y="54" width="6" height="6" fill="#28BEB4" opacity="0.55"/>
    <rect x="91" y="62" width="8" height="8" fill="#28BEB4" opacity="0.72"/>
    <rect x="78" y="59" width="7" height="7" fill="#28BEB4" opacity="0.68"/>
    <rect x="78" y="57" width="7" height="7" fill="#28BEB4" opacity="0.55"/>
    <rect x="98" y="58" width="7" height="7" fill="#28BEB4" opacity="0.74"/>
    <rect x="78" y="43" width="5" height="5" fill="#28BEB4" opacity="0.46"/>
    <rect x="81" y="58" width="7" height="7" fill="#28BEB4" opacity="0.69"/>
    <rect x="69" y="50" width="6" height="6" fill="#28BEB4" opacity="0.39"/>
    <rect x="83" y="50" width="7" height="7" fill="#28BEB4" opacity="0.52"/>
    <rect x="96" y="67" width="8" height="8" fill="#28BEB4" opacity="0.73"/>
    <rect x="106" y="52" width="8" height="8" fill="#28BEB4" opacity="0.81"/>
    <rect x="84" y="55" width="7" height="7" fill="#28BEB4" opacity="0.57"/>
    <rect x="98" y="62" width="8" height="8" fill="#28BEB4" opacity="0.72"/>
    <rect x="79" y="50" width="7" height="7" fill="#28BEB4" opacity="0.49"/>
    <rect x="91" y="59" width="8" height="8" fill="#28BEB4" opacity="0.73"/>
    <rect x="105" y="290" width="8" height="8" fill="#28BEB4" opacity="0.88"/>
    <rect x="115" y="288" width="7" height="7" fill="#28BEB4" opacity="0.82"/>
    <rect x="126" y="281" width="7" height="7" fill="#28BEB4" opacity="0.75"/>
    <rect x="134" y="274" width="7" height="7" fill="#28BEB4" opacity="0.7"/>
    <rect x="86" y="308" width="6" height="6" fill="#28BEB4" opacity="0.6"/>
    <rect x="91" y="303" width="8" height="8" fill="#28BEB4" opacity="0.63"/>
    <rect x="92" y="301" width="7" height="7" fill="#28BEB4" opacity="0.71"/>
    <rect x="75" y="297" width="6" height="6" fill="#28BEB4" opacity="0.66"/>
    <rect x="69" y="308" width="6" height="6" fill="#28BEB4" opacity="0.49"/>
    <rect x="70" y="310" width="6" height="6" fill="#28BEB4" opacity="0.46"/>
    <rect x="84" y="306" width="7" height="7" fill="#28BEB4" opacity="0.62"/>
    <rect x="79" y="300" width="6" height="6" fill="#28BEB4" opacity="0.63"/>
    <rect x="69" y="313" width="5" height="5" fill="#28BEB4" opacity="0.38"/>
    <rect x="70" y="321" width="5" height="5" fill="#28BEB4" opacity="0.5"/>
    <rect x="76" y="309" width="6" height="6" fill="#28BEB4" opacity="0.53"/>
    <rect x="76" y="306" width="7" height="7" fill="#28BEB4" opacity="0.49"/>
    <rect x="81" y="311" width="6" height="6" fill="#28BEB4" opacity="0.57"/>
    <rect x="88" y="308" width="7" height="7" fill="#28BEB4" opacity="0.67"/>
    <rect x="71" y="316" width="6" height="6" fill="#28BEB4" opacity="0.49"/>
    <rect x="81" y="296" width="6" height="6" fill="#28BEB4" opacity="0.64"/>
    <rect x="92" y="308" width="8" height="8" fill="#28BEB4" opacity="0.75"/>
    <rect x="64" y="299" width="5" height="5" fill="#28BEB4" opacity="0.5"/>
    <rect x="82" y="309" width="7" height="7" fill="#28BEB4" opacity="0.61"/>
    <rect x="81" y="303" width="7" height="7" fill="#28BEB4" opacity="0.65"/>
    <rect x="99" y="311" width="8" height="8" fill="#28BEB4" opacity="0.79"/>
    <rect x="84" y="308" width="6" height="6" fill="#28BEB4" opacity="0.69"/>
    <rect x="133" y="84" width="7" height="7" fill="#3CC3A2" opacity="0.81"/>
    <rect x="143" y="90" width="8" height="8" fill="#3CC3A2" opacity="0.89"/>
    <rect x="155" y="94" width="8" height="8" fill="#3CC3A2" opacity="0.8"/>
    <rect x="123" y="71" width="7" height="7" fill="#3CC3A2" opacity="0.69"/>
    <rect x="117" y="92" width="7" height="7" fill="#3CC3A2" opacity="0.82"/>
    <rect x="116" y="67" width="7" height="7" fill="#3CC3A2" opacity="0.65"/>
    <rect x="98" y="75" width="6" height="6" fill="#3CC3A2" opacity="0.53"/>
    <rect x="113" y="73" width="7" height="7" fill="#3CC3A2" opacity="0.66"/>
    <rect x="108" y="77" width="7" height="7" fill="#3CC3A2" opacity="0.63"/>
    <rect x="112" y="80" width="7" height="7" fill="#3CC3A2" opacity="0.62"/>
    <rect x="118" y="77" width="7" height="7" fill="#3CC3A2" opacity="0.76"/>
    <rect x="116" y="86" width="8" height="8" fill="#3CC3A2" opacity="0.64"/>
    <rect x="109" y="64" width="6" height="6" fill="#3CC3A2" opacity="0.49"/>
    <rect x="111" y="66" width="7" height="7" fill="#3CC3A2" opacity="0.61"/>
    <rect x="117" y="93" width="8" height="8" fill="#3CC3A2" opacity="0.82"/>
    <rect x="98" y="74" width="6" height="6" fill="#3CC3A2" opacity="0.37"/>
    <rect x="124" y="78" width="7" height="7" fill="#3CC3A2" opacity="0.69"/>
    <rect x="104" y="70" width="6" height="6" fill="#3CC3A2" opacity="0.51"/>
    <rect x="106" y="62" width="6" height="6" fill="#3CC3A2" opacity="0.53"/>
    <rect x="111" y="68" width="6" height="6" fill="#3CC3A2" opacity="0.57"/>
    <rect x="118" y="82" width="8" height="8" fill="#3CC3A2" opacity="0.8"/>
    <rect x="134" y="274" width="7" height="7" fill="#3CC3A2" opacity="0.79"/>
    <rect x="143" y="269" width="7" height="7" fill="#3CC3A2" opacity="0.76"/>
    <rect x="152" y="262" width="7" height="7" fill="#3CC3A2" opacity="0.73"/>
    <rect x="122" y="274" width="7" height="7" fill="#3CC3A2" opacity="0.78"/>
    <rect x="113" y="292" width="6" height="6" fill="#3CC3A2" opacity="0.57"/>
    <rect x="120" y="282" width="8" height="8" fill="#3CC3A2" opacity="0.77"/>
    <rect x="107" y="288" width="5" height="5" fill="#3CC3A2" opacity="0.47"/>
    <rect x="97" y="289" width="6" height="6" fill="#3CC3A2" opacity="0.45"/>
    <rect x="114" y="285" width="7" height="7" fill="#3CC3A2" opacity="0.58"/>
    <rect x="118" y="287" width="7" height="7" fill="#3CC3A2" opacity="0.67"/>
    <rect x="98" y="293" width="6" height="6" fill="#3CC3A2" opacity="0.33"/>
    <rect x="103" y="292" width="5" height="5" fill="#3CC3A2" opacity="0.54"/>
    <rect x="105" y="289" width="6" height="6" fill="#3CC3A2" opacity="0.55"/>
    <rect x="120" y="280" width="7" height="7" fill="#3CC3A2" opacity="0.74"/>
    <rect x="109" y="292" width="5" height="5" fill="#3CC3A2" opacity="0.55"/>
    <rect x="102" y="295" width="6" height="6" fill="#3CC3A2" opacity="0.37"/>
    <rect x="118" y="287" width="6" height="6" fill="#3CC3A2" opacity="0.6"/>
    <rect x="119" y="282" width="7" height="7" fill="#3CC3A2" opacity="0.74"/>
    <rect x="103" y="295" width="6" height="6" fill="#3CC3A2" opacity="0.46"/>
    <rect x="99" y="291" width="6" height="6" fill="#3CC3A2" opacity="0.51"/>
    <rect x="120" y="286" width="8" height="8" fill="#3CC3A2" opacity="0.74"/>
    <rect x="159" y="100" width="7" height="7" fill="#50C890" opacity="0.87"/>
    <rect x="172" y="108" width="8" height="8" fill="#50C890" opacity="0.72"/>
    <rect x="144" y="93" width="7" height="7" fill="#50C890" opacity="0.67"/>
    <rect x="138" y="87" width="6" height="6" fill="#50C890" opacity="0.58"/>
    <rect x="132" y="83" width="5" height="5" fill="#50C890" opacity="0.44"/>
    <rect x="131" y="84" width="6" height="6" fill="#50C890" opacity="0.49"/>
    <rect x="152" y="88" width="8" height="8" fill="#50C890" opacity="0.74"/>
    <rect x="152" y="94" width="7" height="7" fill="#50C890" opacity="0.83"/>
    <rect x="145" y="96" width="7" height="7" fill="#50C890" opacity="0.66"/>
    <rect x="144" y="93" width="7" height="7" fill="#50C890" opacity="0.67"/>
    <rect x="138" y="84" width="6" height="6" fill="#50C890" opacity="0.53"/>
    <rect x="128" y="90" width="6" height="6" fill="#50C890" opacity="0.35"/>
    <rect x="139" y="104" width="7" height="7" fill="#50C890" opacity="0.59"/>
    <rect x="139" y="85" width="6" height="6" fill="#50C890" opacity="0.46"/>
    <rect x="152" y="84" width="8" height="8" fill="#50C890" opacity="0.63"/>
    <rect x="147" y="98" width="7" height="7" fill="#50C890" opacity="0.65"/>
    <rect x="156" y="259" width="7" height="7" fill="#50C890" opacity="0.71"/>
    <rect x="170" y="251" width="7" height="7" fill="#50C890" opacity="0.77"/>
    <rect x="150" y="263" width="7" height="7" fill="#50C890" opacity="0.82"/>
    <rect x="140" y="269" width="6" height="6" fill="#50C890" opacity="0.52"/>
    <rect x="131" y="270" width="5" height="5" fill="#50C890" opacity="0.47"/>
    <rect x="151" y="259" width="8" height="8" fill="#50C890" opacity="0.73"/>
    <rect x="139" y="279" width="6" height="6" fill="#50C890" opacity="0.5"/>
    <rect x="145" y="268" width="6" height="6" fill="#50C890" opacity="0.65"/>
    <rect x="151" y="270" width="8" height="8" fill="#50C890" opacity="0.71"/>
    <rect x="132" y="279" width="5" height="5" fill="#50C890" opacity="0.49"/>
    <rect x="134" y="275" width="6" height="6" fill="#50C890" opacity="0.39"/>
    <rect x="151" y="262" width="7" height="7" fill="#50C890" opacity="0.7"/>
    <rect x="149" y="269" width="8" height="8" fill="#50C890" opacity="0.68"/>
    <rect x="141" y="274" width="7" height="7" fill="#50C890" opacity="0.56"/>
    <rect x="135" y="264" width="6" height="6" fill="#50C890" opacity="0.55"/>
    <rect x="129" y="270" width="6" height="6" fill="#50C890" opacity="0.42"/>
    <rect x="182" y="117" width="8" height="8" fill="#64CD7E" opacity="0.76"/>
    <rect x="193" y="123" width="8" height="8" fill="#64CD7E" opacity="0.71"/>
    <rect x="162" y="104" width="6" height="6" fill="#64CD7E" opacity="0.52"/>
    <rect x="167" y="108" width="7" height="7" fill="#64CD7E" opacity="0.6"/>
    <rect x="173" y="104" width="7" height="7" fill="#64CD7E" opacity="0.69"/>
    <rect x="160" y="114" width="6" height="6" fill="#64CD7E" opacity="0.53"/>
    <rect x="169" y="113" width="7" height="7" fill="#64CD7E" opacity="0.61"/>
    <rect x="175" y="115" width="8" height="8" fill="#64CD7E" opacity="0.69"/>
    <rect x="172" y="111" width="7" height="7" fill="#64CD7E" opacity="0.7"/>
    <rect x="167" y="103" width="7" height="7" fill="#64CD7E" opacity="0.46"/>
    <rect x="173" y="111" width="8" height="8" fill="#64CD7E" opacity="0.61"/>
    <rect x="156" y="114" width="6" height="6" fill="#64CD7E" opacity="0.38"/>
    <rect x="183" y="242" width="7" height="7" fill="#64CD7E" opacity="0.78"/>
    <rect x="192" y="236" width="8" height="8" fill="#64CD7E" opacity="0.86"/>
    <rect x="166" y="250" width="6" height="6" fill="#64CD7E" opacity="0.61"/>
    <rect x="176" y="245" width="7" height="7" fill="#64CD7E" opacity="0.74"/>
    <rect x="167" y="257" width="6" height="6" fill="#64CD7E" opacity="0.49"/>
    <rect x="167" y="251" width="7" height="7" fill="#64CD7E" opacity="0.58"/>
    <rect x="173" y="250" width="8" height="8" fill="#64CD7E" opacity="0.61"/>
    <rect x="172" y="254" width="6" height="6" fill="#64CD7E" opacity="0.56"/>
    <rect x="171" y="248" width="8" height="8" fill="#64CD7E" opacity="0.64"/>
    <rect x="174" y="245" width="8" height="8" fill="#64CD7E" opacity="0.79"/>
    <rect x="176" y="252" width="8" height="8" fill="#64CD7E" opacity="0.66"/>
    <rect x="158" y="250" width="5" height="5" fill="#64CD7E" opacity="0.44"/>
  </g>

  <!-- Chevron arrow lines -->
  <g fill="none" stroke-linecap="round" stroke-linejoin="round">
    <polyline points="40,28 320,180 40,332" stroke="#00B4D8" stroke-width="7.5"/>
    <polyline points="72,48 315,180 72,312" stroke="#14B9C6" stroke-width="7.0"/>
    <polyline points="102,66 310,180 102,294" stroke="#28BEB4" stroke-width="7.0"/>
    <polyline points="130,84 305,180 130,276" stroke="#3CC3A2" stroke-width="6.5"/>
    <polyline points="156,100 300,180 156,260" stroke="#50C890" stroke-width="6.0"/>
    <polyline points="180,116 295,180 180,244" stroke="#64CD7E" stroke-width="6.0"/>
  </g>

  <!-- "FastPATH" title -->
  <text x="400" y="192"
        font-family="'Montserrat', 'Segoe UI', 'Inter', 'Helvetica Neue', Arial, sans-serif"
        font-weight="800" font-size="72" fill="#FFFFFF" letter-spacing="1">
    FastPATH
  </text>

  <!-- Subtitle -->
  <text x="405" y="230"
        font-family="'Montserrat', 'Segoe UI', 'Inter', 'Helvetica Neue', Arial, sans-serif"
        font-weight="400" font-size="19" fill="#7B9CB8" letter-spacing="5.5">
    DIGITAL PATHOLOGY VIEWER
  </text>
</svg>